<?xml version="1.0" encoding="UTF-8"?>
<svg width="1024px" height="1024px" viewBox="0 0 1024 1024" version="1.1" xmlns="http://www.w3.org/2000/svg" xmlns:xlink="http://www.w3.org/1999/xlink">
    <!-- Generator: Sketch 63.1 (92452) - https://sketch.com -->
    <title>工具icon/Tool_m1/0044_jinbi</title>
    <desc>Created with Sketch.</desc>
    <g id="工具icon/Tool_m1/0044_jinbi" stroke="none" stroke-width="1" fill="none" fill-rule="evenodd" fill-opacity="1">
        <path d="M896,248.803679 C896,128.768889 698.149975,64 511.987185,64 C326.900851,64 130.281061,128.02603 128,246.715265 L128,779.527328 L128.089705,779.527328 C132.805607,896.800926 328.092641,960 511.987185,960 C695.881729,960 891.181579,896.800926 895.910295,779.555361 L896,779.555361 L896,248.803679 Z M176.14577,530.711635 C239.87452,587.126865 362.949308,623.695148 511.987185,623.695148 C661.025063,623.695148 784.087035,587.126865 847.8286,530.725652 L847.8286,622.447705 C831.707392,681.596095 698.290939,742.622657 511.987185,742.622657 C325.683431,742.622657 192.215718,681.511998 176.14577,622.405657 L176.14577,530.711635 Z M847.841415,450.81926 C831.707392,509.897569 698.290939,570.994212 511.987185,570.994212 C325.683431,570.994212 192.215718,509.869537 176.14577,450.763195 L176.14577,341.997435 C246.153846,401.986797 381.915435,433.607359 511.987185,433.607359 C642.058935,433.607359 777.820524,401.986797 847.841415,341.997435 L847.841415,450.805244 L847.841415,450.81926 Z M511.987185,116.742984 C705.915835,116.742984 850.827299,186.487626 850.827299,248.845728 C850.827299,311.203829 705.915835,380.906423 511.987185,380.906423 C318.058535,380.906423 173.147072,311.161781 173.147072,248.803679 C173.147072,186.445578 318.058535,116.742984 511.987185,116.742984 Z M511.987185,907.257016 C334.282263,907.257016 197.738962,848.697306 176.14577,790.922504 L176.14577,702.340081 C239.87452,758.755311 362.949308,795.323593 511.987185,795.323593 C661.025063,795.323593 784.087035,758.769327 847.8286,702.354097 L847.8286,790.922504 C826.235408,848.711322 689.692107,907.257016 511.987185,907.257016 Z" id="icon_bizhong" fill="#FFFFFF" fill-rule="nonzero"></path>
    </g>
</svg>