<?xml version="1.0" encoding="UTF-8"?>
<svg width="1024px" height="1024px" viewBox="0 0 1024 1024" version="1.1" xmlns="http://www.w3.org/2000/svg" xmlns:xlink="http://www.w3.org/1999/xlink">
    <title>框架组件/home/menu/menu_service_original</title>
    <g id="框架组件/home/menu/menu_service_original" stroke="none" stroke-width="1" fill="none" fill-rule="evenodd">
        <g id="编组">
            <rect id="矩形" x="0" y="0" width="1024" height="1024"></rect>
            <g id="基础icon/Basic_M/0001_fangzi_45bai" transform="translate(362.6667, 317.8667)" fill="#67729C" fill-rule="nonzero">
                <path d="M287.459858,178.463967 C287.538265,175.400093 287.545503,172.334902 287.481565,169.270713 C288.334407,127.508527 275.483891,92.3056797 250.315679,67.4568544 C238.310768,55.6083721 223.710824,46.5143669 206.980255,40.3183045 C204.383576,17.7607945 179.053215,5.68434189e-14 148.285124,5.68434189e-14 C117.517361,5.68434189e-14 92.1896311,17.7607945 89.5919658,40.3183045 C72.8623833,46.5143669 58.2644123,55.6083721 46.2604887,67.4574906 C21.0856984,92.306634 8.23057736,127.439816 9.08637946,169.075396 C9.01171878,173.009409 9.03704421,176.702616 9.16367135,180.31407 C2.64023597,186.664732 -2.4702379,196.254982 1.26345365,209.715623 C4.0393836,219.716866 11.6893071,227.211436 21.0764892,230.490469 C25.8465499,233.334334 31.4500473,234.991347 37.4452666,235.029837 C49.4139978,285.641087 92.8609194,320 149.598099,320 C206.23003,320 249.687147,285.555517 261.58944,234.915001 C261.95485,234.991347 262.334403,235.0327 262.725138,235.0327 C270.200415,235.0327 277.074788,232.509168 282.496732,228.305719 C289.586865,224.415605 295.129844,217.906845 297.402555,209.715623 C301.519746,194.878538 294.88843,184.740192 287.459858,178.463649 L287.459858,178.463967 Z M98.7798335,118.085282 C99.6803662,119.544751 121.302032,154.026452 162.042093,168.972966 C173.280333,173.096252 184.795509,175.45596 195.931133,177.736141 C218.270791,182.313682 239.372463,186.637056 253.748754,204.686055 C253.898404,204.875646 254.065486,205.048059 254.236515,205.213474 L254.215137,206.124847 C254.215137,212.851827 253.689552,219.358043 252.676535,225.607865 C234.193248,254.17121 203.528761,272.884731 165.538646,276.915767 C162.708119,273.302722 156.940171,270.809728 150.240444,270.809728 C140.738804,270.809728 133.029349,275.784265 133.029349,281.905254 C133.029349,288.040877 140.738804,293.003007 150.240773,293.003007 C158.756037,293.003007 165.770851,288.994557 167.136451,283.752494 C179.389682,282.391002 191.072597,279.557952 202.024365,275.283248 C217.669558,269.170848 231.454484,260.269933 242.99663,248.824172 C244.845057,246.993474 246.617508,245.099155 248.334046,243.153938 C234.578392,283.672331 197.80653,309.720415 149.801689,309.723914 C149.715188,309.720415 149.479365,309.720415 149.393851,309.720415 C87.7961628,309.720415 44.7741822,267.120338 44.7741822,206.027824 L44.6590666,200.216034 C44.5827614,197.723994 44.9830347,190.725032 45.4112647,184.015866 C78.9908078,172.524934 92.9339355,139.513835 93.5440481,138.029554 L98.7798335,118.085282 Z M120.926755,210.659443 C120.926755,221.293716 112.010889,229.919788 101.01176,229.919788 C90.0139467,229.919788 81.0980807,221.293716 81.0980807,210.659443 C81.0980807,200.021671 90.0139467,191.397508 101.012089,191.397508 C112.009902,191.397508 120.926755,200.021353 120.926755,210.659443 Z M213.662221,210.659443 C213.662221,221.124802 204.889427,229.609635 194.066918,229.609635 C183.244409,229.609635 174.469971,221.124802 174.469971,210.659443 C174.469971,200.190267 183.244409,191.705434 194.066918,191.705434 C204.889427,191.705434 213.662221,200.190267 213.662221,210.659443 Z" id="形状"></path>
            </g>
            <g id="客服" transform="translate(348.3307, 712.704)" fill="#67729C" fill-rule="nonzero">
                <path d="M128.512,104.789333 L31.232,104.789333 L31.232,158.208 L43.1786667,158.208 L43.1786667,150.869333 L116.565333,150.869333 L116.565333,158.208 L128.512,158.208 L128.512,104.789333 Z M43.1786667,139.776 L43.1786667,115.882667 L116.565333,115.882667 L116.565333,139.776 L43.1786667,139.776 Z M56.832,28.672 C45.9093333,44.544 32.0853333,57.344 15.1893333,67.072 L23.04,76.6293333 C30.5493333,71.8506667 37.7173333,66.56 44.3733333,60.5866667 C51.712,67.072 59.7333333,72.8746667 68.4373333,77.9946667 C50.3466667,85.1626667 27.4773333,90.7946667 0,95.232 L4.608,106.154667 C35.328,100.864 60.7573333,93.696 80.896,84.48 C102.058667,94.72 126.122667,100.693333 153.429333,102.741333 L156.16,91.648 C133.12,89.9413333 112.298667,85.504 93.696,78.1653333 C106.837333,70.656 116.906667,62.1226667 123.904,52.3946667 L123.904,42.496 L60.928,42.496 C63.6586667,38.912 66.2186667,35.1573333 68.7786667,31.232 L56.832,28.672 Z M81.0666667,72.5333333 C70.4853333,67.2426667 60.5866667,60.928 51.5413333,53.4186667 L52.0533333,52.9066667 L109.226667,52.9066667 C102.229333,60.0746667 92.8426667,66.7306667 81.0666667,72.5333333 Z M147.626667,13.9946667 L84.6506667,13.9946667 C82.6026667,8.87466667 80.7253333,4.096 78.6773333,0 L65.1946667,2.048 C67.4133333,5.632 69.4613333,9.55733333 71.5093333,13.9946667 L9.04533333,13.9946667 L9.04533333,46.2506667 L21.504,46.2506667 L21.504,25.088 L135.168,25.088 L135.168,46.2506667 L147.626667,46.2506667 L147.626667,13.9946667 Z" id="形状"></path>
                <path d="M194.730667,59.5626667 L222.208,59.5626667 L222.208,88.064 L194.730667,88.064 L194.730667,59.5626667 Z M222.208,48.4693333 L194.730667,48.4693333 L194.730667,19.6266667 L222.208,19.6266667 L222.208,48.4693333 Z M194.56,99.1573333 L222.208,99.1573333 L222.208,137.728 C222.208,143.872 219.989333,146.944 215.722667,146.944 C211.626667,146.944 207.36,146.602667 202.581333,146.261333 L205.482667,157.184 L219.136,157.184 C228.693333,157.184 233.472,151.893333 233.472,141.653333 L233.472,8.53333333 L183.637333,8.53333333 L183.637333,90.4533333 C183.466667,114.346667 180.053333,134.144 173.226667,149.504 L182.442667,158.037333 C189.44,142.677333 193.536,123.050667 194.56,99.1573333 Z M259.413333,82.2613333 L263.509333,82.2613333 C267.264,98.9866667 274.602667,114.005333 285.525333,127.317333 C278.698667,135.509333 270.506667,142.165333 260.778667,147.456 L267.264,157.354667 C277.504,151.893333 286.208,144.896 293.717333,136.192 C301.568,143.872 310.784,150.869333 321.706667,157.184 L327.850667,146.773333 C317.44,140.8 308.394667,134.144 300.714667,126.634667 C308.565333,114.346667 314.197333,99.328 317.44,81.7493333 L317.44,71.3386667 L259.413333,71.3386667 L259.413333,19.6266667 L304.981333,19.6266667 C304.64,32.5973333 303.957333,40.96 302.762667,44.7146667 C301.738667,47.2746667 300.202667,48.9813333 298.154667,49.664 C296.106667,50.176 293.205333,50.5173333 289.109333,50.5173333 C284.330667,50.5173333 280.576,50.3466667 277.674667,50.3466667 L280.917333,60.928 L294.741333,60.928 C305.493333,60.928 311.808,57.344 313.856,50.3466667 C315.904,43.52 316.928,29.5253333 316.928,8.36266667 L247.808,8.36266667 L247.808,157.866667 L259.413333,157.866667 L259.413333,82.2613333 Z M274.090667,82.2613333 L306.517333,82.2613333 C303.445333,95.744 298.837333,107.52 292.522667,117.76 C283.818667,107.178667 277.674667,95.4026667 274.090667,82.2613333 Z" id="形状"></path>
            </g>
        </g>
    </g>
</svg>