<?xml version="1.0" encoding="UTF-8"?>
<svg width="1024px" height="1024px" viewBox="0 0 1024 1024" version="1.1" xmlns="http://www.w3.org/2000/svg" xmlns:xlink="http://www.w3.org/1999/xlink">
    <title>框架组件/home/menu/menu_personal_click</title>
    <g id="框架组件/home/menu/menu_personal_click" stroke="none" stroke-width="1" fill="none" fill-rule="evenodd">
        <g id="编组">
            <rect id="矩形" x="0" y="0" width="1024" height="1024"></rect>
            <g id="编组-2" transform="translate(185.344, 307.2)" fill="#44ACF8">
                <g id="基础icon/Basic_M/0001_fangzi_bai" transform="translate(169.4789, 21.3333)">
                    <path d="M282.136888,230.108262 C285.04716,225.732194 287.229864,221.720798 289.776353,216.980057 C290.503921,215.88604 290.867705,214.792023 291.231489,213.698006 C293.050409,210.051282 294.505545,206.404558 295.960681,202.757835 C296.688249,201.299145 297.052033,199.840456 297.779601,198.017094 C298.870953,194.37037 299.962305,191.088319 301.053657,187.441595 C301.417441,185.618234 302.145009,184.159544 302.508793,182.336182 C303.236361,178.689459 303.963929,174.678063 304.691497,171.031339 C305.055281,169.207977 305.419065,167.749288 305.419065,166.290598 C306.146633,160.820513 306.510417,155.350427 306.510417,149.51567 C306.510417,67.0997151 239.57416,-7.10542736e-15 157.358975,-7.10542736e-15 C74.7800066,-7.10542736e-15 7.84375,67.0997151 7.84375,149.51567 C7.84375,154.985755 8.207534,160.820513 8.93510201,166.290598 C9.29888601,168.11396 9.29888601,169.57265 9.66267002,171.396011 C10.026454,174.678063 10.754022,178.689459 11.48159,182.336182 C11.845374,184.159544 12.209158,185.982906 12.936726,187.441595 C14.0280781,191.088319 15.1194301,194.735043 16.2107821,198.017094 C16.5745661,199.475783 17.3021341,200.934473 18.0297021,202.757835 C19.4848381,206.404558 20.9399741,210.415954 22.7588941,213.698006 C23.1226781,214.792023 23.8502461,215.88604 24.2140301,216.980057 C26.3967342,221.356125 28.9432222,225.732194 31.8534942,230.108262 L32.2172782,230.472934 C58.7735105,271.680912 104.610295,298.666667 156.995191,298.666667 C209.380088,298.666667 255.216872,271.316239 281.773104,230.472934 L282.136888,230.108262 Z M156.995191,71.4757835 C187.189264,71.4757835 211.926576,96.2735043 211.926576,126.541311 C211.562792,156.809117 187.189264,181.242165 156.995191,181.242165 C126.801119,181.242165 102.063807,156.444444 102.063807,126.176638 C102.063807,96.2735043 126.801119,71.4757835 156.995191,71.4757835 Z M66.4129745,242.871795 C82.0556867,207.133903 117.342735,183.430199 156.995191,183.430199 C196.647648,183.430199 231.934696,207.133903 247.577408,242.871795 C223.931448,265.846154 191.918456,279.703704 156.995191,279.703704 C121.708143,279.703704 89.6951507,265.846154 66.4129745,242.871795 Z" id="形状"></path>
                </g>
                <g id="个人中心" transform="translate(0, 406.016)" fill-rule="nonzero">
                    <path d="M72.8746667,51.2 L72.8746667,157.013333 L85.504,157.013333 L85.504,51.2 L72.8746667,51.2 Z M73.728,0.853333333 C56.4906667,26.4533333 31.9146667,47.4453333 0,63.6586667 L7.33866667,74.752 C36.352,60.0746667 60.2453333,39.2533333 79.1893333,12.288 C94.8906667,36.864 118.954667,57.344 151.04,74.0693333 L158.378667,62.976 C123.562667,45.056 98.9866667,24.4053333 84.6506667,0.853333333 L73.728,0.853333333 Z" id="形状"></path>
                    <path d="M256,1.024 L243.541333,1.024 C243.541333,7.50933333 243.370667,16.5546667 243.2,28.16 C241.664,77.312 217.429333,116.394667 170.496,145.237333 L178.005333,156.16 C215.893333,131.754667 240.128,101.034667 250.368,63.8293333 C262.485333,102.4 286.037333,133.12 320.853333,155.989333 L328.874667,145.237333 C289.109333,120.832 264.362667,85.3333333 254.805333,38.912 C255.488,28.3306667 256,15.7013333 256,1.024 Z" id="路径"></path>
                    <path d="M414.208,0 L414.208,30.72 L353.109333,30.72 L353.109333,110.933333 L365.397333,110.933333 L365.397333,100.181333 L414.208,100.181333 L414.208,158.378667 L426.837333,158.378667 L426.837333,100.181333 L475.818667,100.181333 L475.818667,110.933333 L488.106667,110.933333 L488.106667,30.72 L426.837333,30.72 L426.837333,0 L414.208,0 Z M365.397333,88.2346667 L365.397333,42.6666667 L414.208,42.6666667 L414.208,88.2346667 L365.397333,88.2346667 Z M426.837333,88.2346667 L426.837333,42.6666667 L475.818667,42.6666667 L475.818667,88.2346667 L426.837333,88.2346667 Z" id="形状"></path>
                    <path d="M613.034667,151.552 C619.861333,151.552 624.981333,149.333333 628.224,145.066667 C631.808,139.946667 634.197333,125.781333 635.562667,102.4 L623.957333,98.4746667 C623.104,118.442667 621.568,130.389333 619.52,134.485333 C617.813333,137.728 614.912,139.434667 610.816,139.434667 L578.730667,139.434667 C572.586667,139.434667 569.514667,136.874667 569.514667,131.754667 L569.514667,36.352 L557.226667,36.352 L557.226667,134.314667 C557.226667,145.749333 563.029333,151.552 574.976,151.552 L613.034667,151.552 Z M531.968,54.6133333 C527.872,80.5546667 521.557333,104.448 512.682667,126.122667 L523.264,132.778667 C532.138667,111.616 538.965333,86.3573333 543.744,57.0026667 L531.968,54.6133333 Z M641.877333,49.3226667 L629.930667,53.248 C640.512,74.0693333 650.24,98.1333333 659.114667,125.269333 L670.378667,120.149333 C662.186667,95.0613333 652.8,71.5093333 641.877333,49.3226667 Z M580.437333,1.36533333 L570.197333,7.68 C585.557333,23.7226667 597.504,38.5706667 606.378667,51.8826667 L616.618667,44.8853333 C608.256,32.4266667 596.138667,17.92 580.437333,1.36533333 Z" id="形状"></path>
                </g>
            </g>
        </g>
    </g>
</svg>