<?xml version="1.0" encoding="UTF-8"?>
<svg width="1024px" height="1024px" viewBox="0 0 1024 1024" version="1.1" xmlns="http://www.w3.org/2000/svg" xmlns:xlink="http://www.w3.org/1999/xlink">
    <title>框架组件/home/menu/menu_personal_original</title>
    <g id="框架组件/home/menu/menu_personal_original" stroke="none" stroke-width="1" fill="none" fill-rule="evenodd">
        <g id="编组">
            <rect id="矩形" x="0" y="0" width="1024" height="1024"></rect>
            <g id="基础icon/Basic_M/0001_fangzi_45bai" transform="translate(362.6667, 328.5333)" fill="#67729C" fill-rule="nonzero">
                <path d="M274.293138,230.108262 C277.20341,225.732194 279.386114,221.720798 281.932603,216.980057 C282.660171,215.88604 283.023955,214.792023 283.387739,213.698006 C285.206659,210.051282 286.661795,206.404558 288.116931,202.757835 C288.844499,201.299145 289.208283,199.840456 289.935851,198.017094 C291.027203,194.37037 292.118555,191.088319 293.209907,187.441595 C293.573691,185.618234 294.301259,184.159544 294.665043,182.336182 C295.392611,178.689459 296.120179,174.678063 296.847747,171.031339 C297.211531,169.207977 297.575315,167.749288 297.575315,166.290598 C298.302883,160.820513 298.666667,155.350427 298.666667,149.51567 C298.666667,67.0997151 231.73041,0 149.515225,0 C66.9362566,0 0,67.0997151 0,149.51567 C0,154.985755 0.363784003,160.820513 1.09135201,166.290598 C1.45513601,168.11396 1.45513601,169.57265 1.81892002,171.396011 C2.18270402,174.678063 2.91027203,178.689459 3.63784003,182.336182 C4.00162404,184.159544 4.36540804,185.982906 5.09297605,187.441595 C6.18432806,191.088319 7.27568006,194.735043 8.36703207,198.017094 C8.73081608,199.475783 9.45838408,200.934473 10.1859521,202.757835 C11.6410881,206.404558 13.0962241,210.415954 14.9151441,213.698006 C15.2789281,214.792023 16.0064961,215.88604 16.3702801,216.980057 C18.5529842,221.356125 21.0994722,225.732194 24.0097442,230.108262 L24.3735282,230.472934 C50.9297605,271.680912 96.7665449,298.666667 149.151441,298.666667 C201.536338,298.666667 247.373122,271.316239 273.929354,230.472934 L274.293138,230.108262 Z M149.151441,71.4757835 C179.345514,71.4757835 204.082826,96.2735043 204.082826,126.541311 C203.719042,156.809117 179.345514,181.242165 149.151441,181.242165 C118.957369,181.242165 94.2200568,156.444444 94.2200568,126.176638 C94.2200568,96.2735043 118.957369,71.4757835 149.151441,71.4757835 Z M58.5692245,242.871795 C74.2119367,207.133903 109.498985,183.430199 149.151441,183.430199 C188.803898,183.430199 224.090946,207.133903 239.733658,242.871795 C216.087698,265.846154 184.074706,279.703704 149.151441,279.703704 C113.864393,279.703704 81.8514007,265.846154 58.5692245,242.871795 Z" id="形状"></path>
            </g>
            <g id="个人中心" transform="translate(185.344, 713.216)" fill="#67729C" fill-rule="nonzero">
                <path d="M72.8746667,51.2 L72.8746667,157.013333 L85.504,157.013333 L85.504,51.2 L72.8746667,51.2 Z M73.728,0.853333333 C56.4906667,26.4533333 31.9146667,47.4453333 0,63.6586667 L7.33866667,74.752 C36.352,60.0746667 60.2453333,39.2533333 79.1893333,12.288 C94.8906667,36.864 118.954667,57.344 151.04,74.0693333 L158.378667,62.976 C123.562667,45.056 98.9866667,24.4053333 84.6506667,0.853333333 L73.728,0.853333333 Z" id="形状"></path>
                <path d="M256,1.024 L243.541333,1.024 C243.541333,7.50933333 243.370667,16.5546667 243.2,28.16 C241.664,77.312 217.429333,116.394667 170.496,145.237333 L178.005333,156.16 C215.893333,131.754667 240.128,101.034667 250.368,63.8293333 C262.485333,102.4 286.037333,133.12 320.853333,155.989333 L328.874667,145.237333 C289.109333,120.832 264.362667,85.3333333 254.805333,38.912 C255.488,28.3306667 256,15.7013333 256,1.024 Z" id="路径"></path>
                <path d="M414.208,0 L414.208,30.72 L353.109333,30.72 L353.109333,110.933333 L365.397333,110.933333 L365.397333,100.181333 L414.208,100.181333 L414.208,158.378667 L426.837333,158.378667 L426.837333,100.181333 L475.818667,100.181333 L475.818667,110.933333 L488.106667,110.933333 L488.106667,30.72 L426.837333,30.72 L426.837333,0 L414.208,0 Z M365.397333,88.2346667 L365.397333,42.6666667 L414.208,42.6666667 L414.208,88.2346667 L365.397333,88.2346667 Z M426.837333,88.2346667 L426.837333,42.6666667 L475.818667,42.6666667 L475.818667,88.2346667 L426.837333,88.2346667 Z" id="形状"></path>
                <path d="M613.034667,151.552 C619.861333,151.552 624.981333,149.333333 628.224,145.066667 C631.808,139.946667 634.197333,125.781333 635.562667,102.4 L623.957333,98.4746667 C623.104,118.442667 621.568,130.389333 619.52,134.485333 C617.813333,137.728 614.912,139.434667 610.816,139.434667 L578.730667,139.434667 C572.586667,139.434667 569.514667,136.874667 569.514667,131.754667 L569.514667,36.352 L557.226667,36.352 L557.226667,134.314667 C557.226667,145.749333 563.029333,151.552 574.976,151.552 L613.034667,151.552 Z M531.968,54.6133333 C527.872,80.5546667 521.557333,104.448 512.682667,126.122667 L523.264,132.778667 C532.138667,111.616 538.965333,86.3573333 543.744,57.0026667 L531.968,54.6133333 Z M641.877333,49.3226667 L629.930667,53.248 C640.512,74.0693333 650.24,98.1333333 659.114667,125.269333 L670.378667,120.149333 C662.186667,95.0613333 652.8,71.5093333 641.877333,49.3226667 Z M580.437333,1.36533333 L570.197333,7.68 C585.557333,23.7226667 597.504,38.5706667 606.378667,51.8826667 L616.618667,44.8853333 C608.256,32.4266667 596.138667,17.92 580.437333,1.36533333 Z" id="形状"></path>
            </g>
        </g>
    </g>
</svg>