<?xml version="1.0" encoding="UTF-8"?>
<svg width="1024px" height="1024px" viewBox="0 0 1024 1024" version="1.1" xmlns="http://www.w3.org/2000/svg" xmlns:xlink="http://www.w3.org/1999/xlink">
    <title>框架组件/home/menu/menu_home_click</title>
    <g id="框架组件/home/menu/menu_home_click" stroke="none" stroke-width="1" fill="none" fill-rule="evenodd">
        <g id="编组">
            <rect id="矩形" x="0" y="0" width="1024" height="1024"></rect>
            <g id="编组-2" transform="translate(341.3333, 307.2)" fill="#44ACF8">
                <g id="基础icon/Basic_M/0001_fangzi_bai" transform="translate(21.3333, 32)">
                    <path d="M200.348833,123.730258 L200.538765,123.732365 C201.908821,123.748853 203.210222,124.410731 203.768645,125.654401 L204.291721,126.558215 C214.663501,143.296948 232.602032,153.281302 252.284488,153.281302 C262.621601,153.202899 271.670568,151.089401 279.156427,146.994981 L281.01591,145.938064 C282.110664,145.29402 283.467805,145.286618 284.562219,145.903742 C285.66445,146.524904 286.34591,147.686806 286.34591,148.941244 L286.325177,240.298487 C286.325177,260.717756 269.542579,277.333333 248.910158,277.333333 L49.7349922,277.333333 C29.109709,277.333333 12.3271105,260.718092 12.3271105,240.298487 L12.3271105,149.135399 C12.3271105,147.877597 13.0085701,146.718386 14.117259,146.097897 C15.2126922,145.47438 16.5762913,145.494569 17.6642474,146.14265 C18.4357751,146.599605 19.227016,147.045791 20.0328717,147.465059 L23.166566,149.132371 C23.4700788,149.176451 23.758637,149.241057 23.9516889,149.319123 C30.5355058,152.056475 38.1379435,153.4445 46.5605118,153.4445 C66.1185713,153.372827 83.9547983,143.436255 94.3265789,126.857692 L94.9325851,125.889608 C95.4831908,124.639208 96.7159357,123.776782 98.0931299,123.748853 C99.2980046,123.698043 100.730939,124.441015 101.336605,125.674927 L101.811418,126.496301 C112.107066,143.173119 129.964025,153.192132 149.584283,153.308558 C168.860241,153.174971 186.538084,143.180522 196.812999,126.571338 L197.253484,125.863025 C197.845895,124.635507 199.140838,123.670788 200.538765,123.732365 Z M250.866168,0 C254.26191,0.190790391 263.964807,0.750038075 267.194687,10.3053663 L296.12494,82.7323116 C297.805987,87.6178212 298.666598,92.6971492 298.666598,97.7761409 C298.687295,114.762868 289.410948,130.386134 274.453506,138.550746 C268.399902,141.861142 260.914043,143.575899 252.201897,143.640505 C235.970923,143.640505 221.171865,135.373937 212.59771,121.526332 C211.929506,120.148739 211.144043,118.45148 209.70533,116.866272 C207.446487,114.340235 204.374311,113.068637 200.5527,113.068637 C196.833052,113.068637 193.356079,114.5105 191.469065,116.832286 C190.015738,118.471669 189.27208,119.998664 188.673551,121.226182 C180.002871,135.281065 165.416577,143.555037 149.481299,143.667424 C133.345492,143.571524 118.649418,135.2777 110.123866,121.481579 C109.489989,120.213681 108.698409,118.597853 107.582922,117.339714 C105.496059,114.857758 101.935815,113.42599 97.9823296,113.42599 C94.2704992,113.42599 90.910105,114.691195 89.2022074,116.733021 C87.6734269,118.410091 86.8675713,119.998664 86.2687024,121.35203 C77.4607101,135.51358 62.7027769,143.746163 46.56731,143.803703 L46.5533748,143.803703 C38.4343192,143.803703 31.3478196,142.324489 25.4869275,139.399712 L25.460077,139.399712 L24.6542214,138.983809 C9.46226162,130.918126 0.0132553425,115.226215 1.77635684e-14,98.0315373 C1.77635684e-14,92.9145223 0.853438931,87.8146682 2.54094345,82.8685904 C2.60314149,82.6740987 2.66533953,82.4324983 2.72040024,82.173064 L33.4139508,9.58594925 C36.1272134,1.6972596 43.213713,0 48.6677688,0 Z" id="形状结合"></path>
                </g>
                <g id="大厅" transform="translate(15.5307, 406.8693)" fill-rule="nonzero">
                    <path d="M3.41333333,44.7146667 L3.41333333,56.6613333 L67.7546667,56.6613333 C58.88,98.6453333 36.352,128.682667 0,146.602667 L7.68,156.842667 C44.032,137.898667 67.584,107.690667 78.1653333,66.2186667 C90.9653333,104.789333 114.517333,134.485333 148.821333,155.648 L156.501333,145.749333 C121.514667,124.928 97.9626667,95.232 86.016,56.6613333 L153.258667,56.6613333 L153.258667,44.7146667 L82.432,44.7146667 C83.7973333,34.1333333 84.6506667,23.04 84.6506667,11.0933333 L84.6506667,0 L72.0213333,0 L72.0213333,13.824 C71.8506667,24.576 71.168,34.816 69.8026667,44.7146667 L3.41333333,44.7146667 Z" id="路径"></path>
                    <path d="M322.048,7.168 L189.952,7.168 L189.952,71.3386667 C189.269333,103.765333 182.954667,129.194667 171.008,147.626667 L180.224,155.818667 C194.218667,134.656 201.557333,106.496 202.24,71.3386667 L202.24,19.1146667 L322.048,19.1146667 L322.048,7.168 Z M212.650667,46.4213333 L212.650667,58.1973333 L264.533333,58.1973333 L264.533333,133.973333 C264.533333,140.117333 261.802667,143.189333 256.512,143.189333 C251.221333,143.189333 245.589333,142.848 239.786667,142.506667 L242.517333,154.112 L260.608,154.112 C271.36,154.112 276.821333,148.309333 276.821333,137.045333 L276.821333,58.1973333 L319.829333,58.1973333 L319.829333,46.4213333 L212.650667,46.4213333 Z" id="形状"></path>
                </g>
            </g>
        </g>
    </g>
</svg>