<?xml version="1.0" encoding="UTF-8"?>
<svg width="1024px" height="1024px" viewBox="0 0 1024 1024" version="1.1" xmlns="http://www.w3.org/2000/svg" xmlns:xlink="http://www.w3.org/1999/xlink">
    <title>框架组件/commonv2/login_user</title>
    <g id="框架组件/commonv2/login_user" stroke="none" stroke-width="1" fill="none" fill-rule="evenodd" fill-opacity="0.65">
        <g id="用户权限icon/User_m1/0021_user_45bai" transform="translate(64, 64)" fill="#000000" fill-rule="nonzero">
            <path d="M301.269725,435.56082 C218.394819,372.575649 184.962547,263.725231 218.194103,165.079169 C251.425659,66.4331077 343.90686,0 448,0 C552.09314,0 644.574341,66.4331077 677.805897,165.079169 C711.037453,263.725231 677.605181,372.575649 594.730275,435.56082 C770.066789,496.307976 896,662.931095 896,858.982471 C896,868.793048 892.102764,878.201809 885.165638,885.138935 C878.228512,892.076061 868.819751,895.973297 859.009174,895.973297 L36.9908265,895.973297 C27.1802492,895.973297 17.7714876,892.076061 10.834362,885.138935 C3.89723629,878.201809 0,868.793048 0,858.982471 C0,662.931095 125.933211,496.307975 301.269725,435.56082 Z M448,410.982471 C508.207074,410.98683 563.842569,378.869241 593.947364,326.729112 C624.052159,274.588983 624.052159,210.348437 593.947364,158.208308 C563.842569,106.068179 508.207074,73.9505907 448,73.954949 C354.937183,73.9616857 279.498437,149.405893 279.498437,242.46871 C279.498437,335.531527 354.937183,410.975735 448,410.982471 Z M448,484.964123 C255.758513,484.970262 94.8220209,630.694559 75.7900924,821.991645 L820.209908,821.991645 C801.177979,630.694559 640.241487,484.970262 448,484.964123 Z" id="形状"></path>
        </g>
    </g>
</svg>