<?xml version="1.0" encoding="UTF-8"?>
<svg width="1024px" height="1024px" viewBox="0 0 1024 1024" version="1.1" xmlns="http://www.w3.org/2000/svg" xmlns:xlink="http://www.w3.org/1999/xlink">
    <!-- Generator: Sketch 63.1 (92452) - https://sketch.com -->
    <title>权限icon/Permission_m/0011_suoding</title>
    <desc>Created with Sketch.</desc>
    <g id="权限icon/Permission_m/0011_suoding" stroke="none" stroke-width="1" fill="none" fill-rule="evenodd" fill-opacity="0.65">
        <path d="M512,64 C684.080301,64 824.436359,199.827629 831.704351,370.119064 L832,384 L895.56189,384 C931.150075,384 960,412.56393 960,447.842857 L960,896.157143 C960,931.416579 931.203279,960 895.56189,960 L128.43811,960 C92.8499247,960 64,931.43607 64,896.157143 L64,447.842857 C64,412.583421 92.7967205,384 128.43811,384 L192,384 L192.295649,370.119064 C199.563641,199.827629 339.919699,64 512,64 Z M863.977772,448 L160.022228,448 C144.585613,448 131.290356,459.397501 128.526429,474.427639 L128,480.219055 L128,863.780945 C128,879.170539 139.327874,892.657886 154.266192,895.465079 L160.022228,896 L863.977772,896 C879.414387,896 892.709644,884.602499 895.473571,869.572361 L896,863.780945 L896,480.219055 C896,464.829461 884.672126,451.342114 869.733808,448.534921 L863.977772,448 Z M512,576 C529.673112,576 544,590.326888 544,608 L544,736 C544,753.673112 529.673112,768 512,768 C494.326888,768 480,753.673112 480,736 L480,608 C480,590.326888 494.326888,576 512,576 Z M512,128 C370.615104,128 256,242.615104 256,384 L768,384 C768,242.615104 653.384896,128 512,128 Z" id="形状" fill="#000000"></path>
    </g>
</svg>